<?xml version="1.0" standalone="no"?>
<!DOCTYPE svg PUBLIC "-//W3C//DTD SVG 20010904//EN"
 "http://www.w3.org/TR/2001/REC-SVG-20010904/DTD/svg10.dtd">
<svg version="1.0" xmlns="http://www.w3.org/2000/svg"
 width="415.000000pt" height="375.000000pt" viewBox="0 0 415.000000 375.000000"
 preserveAspectRatio="xMidYMid meet">

<g transform="translate(0.000000,375.000000) scale(0.100000,-0.100000)"
fill="#000000" stroke="none">
<path d="M0 1875 l0 -1875 2075 0 2075 0 0 1875 0 1875 -2075 0 -2075 0 0
-1875z m1545 -890 c0 -22 -31 -33 -47 -17 -17 17 -1 44 24 40 15 -2 23 -10 23
-23z m-797 -30 c27 -32 28 -45 2 -77 -19 -25 -19 -26 0 -43 30 -27 26 -79 -6
-104 -22 -17 -41 -21 -100 -21 l-74 0 0 133 c0 74 3 137 8 141 4 5 39 6 77 3
59 -5 74 -10 93 -32z m112 -93 c0 -81 17 -112 60 -112 39 0 50 23 50 109 0 69
1 71 25 71 l25 0 0 -110 0 -110 -25 0 c-14 0 -25 5 -25 12 0 9 -3 9 -12 0 -22
-22 -86 -14 -113 13 -23 22 -25 32 -25 110 0 78 2 85 20 85 18 0 20 -7 20 -68z
m355 43 c14 -13 25 -29 25 -35 0 -16 -47 -12 -54 5 -3 9 -18 15 -36 15 -23 0
-30 -4 -30 -19 0 -14 13 -24 50 -36 70 -23 90 -65 50 -105 -40 -40 -150 -17
-150 31 0 23 38 27 46 4 4 -9 19 -15 40 -15 27 0 34 4 34 20 0 14 -11 22 -42
31 -53 14 -78 35 -78 66 0 61 97 87 145 38z m210 0 c14 -13 25 -29 25 -35 0
-16 -47 -12 -54 5 -3 9 -18 15 -36 15 -23 0 -30 -4 -30 -19 0 -14 13 -24 50
-36 70 -23 90 -65 50 -105 -40 -40 -150 -17 -150 31 0 23 38 27 46 4 4 -9 19
-15 40 -15 27 0 34 4 34 20 0 14 -11 22 -42 31 -53 14 -78 35 -78 66 0 61 97
87 145 38z m115 -85 c0 -103 -1 -110 -20 -110 -19 0 -20 7 -20 110 0 103 1
110 20 110 19 0 20 -7 20 -110z m110 100 c0 -7 6 -7 19 0 34 18 80 12 106 -15
23 -22 25 -32 25 -110 0 -78 -2 -85 -20 -85 -18 0 -20 7 -20 63 0 77 -16 111
-53 115 -47 6 -57 -12 -57 -99 0 -78 0 -79 -25 -79 l-25 0 0 110 0 110 25 0
c14 0 25 -5 25 -10z m359 -4 c30 -16 51 -53 51 -91 0 -25 -1 -25 -86 -25 l-86
0 14 -22 c19 -29 79 -36 98 -14 14 18 50 22 50 6 0 -6 -11 -22 -25 -35 -18
-19 -35 -25 -68 -25 -54 0 -91 26 -107 75 -32 97 67 178 159 131z m229 -6 c12
-12 22 -27 22 -35 0 -20 -34 -19 -50 1 -16 19 -65 15 -65 -6 0 -8 14 -21 30
-28 70 -30 80 -38 83 -66 5 -41 -22 -66 -73 -66 -45 0 -95 29 -95 56 0 19 46
18 54 -2 4 -10 16 -14 38 -12 50 5 41 29 -17 51 -78 28 -93 60 -50 102 31 32
91 34 123 5z m210 4 c27 -19 30 -54 3 -54 -10 0 -24 7 -31 16 -15 17 -61 15
-68 -4 -2 -7 12 -19 35 -28 69 -27 83 -37 89 -61 17 -65 -99 -101 -151 -48
-14 13 -25 29 -25 35 0 16 47 12 54 -5 3 -9 19 -15 41 -15 50 0 44 29 -11 50
-56 21 -74 38 -74 71 0 35 32 59 80 59 20 0 46 -7 58 -16z"/>
<path d="M620 910 c0 -40 0 -40 38 -40 41 0 62 14 62 42 0 22 -29 38 -69 38
-29 0 -31 -2 -31 -40z"/>
<path d="M620 790 l0 -40 45 0 c34 0 47 5 55 20 19 36 -3 60 -55 60 l-45 0 0
-40z"/>
<path d="M1913 878 c-27 -36 -25 -38 36 -38 34 0 61 4 61 9 0 33 -76 56 -97
29z"/>
</g>
</svg>
